<svg id="Capa_1" enable-background="new 0 0 512 512" height="512" viewBox="0 0 512 512" width="512" xmlns="http://www.w3.org/2000/svg"><g><g><path clip-rule="evenodd" d="m127.833 211.001c0 38.38 8.864 48.642 31.136 77.838 10.085 13.266 16.676 22.677 20.937 30.699 20.795-26.929 53.409-44.276 90.114-44.276 35.966 0 68.04 16.667 88.835 42.689 9.432-22.847 25.312-24.519 25.312-57.826v-163.84c0-12.416-10.199-22.592-22.642-22.592s-22.642 10.176-22.642 22.592v-35.546c0-14.173-11.619-25.795-25.852-25.795-14.205 0-25.824 11.622-25.824 25.795v-24.944c0-14.201-11.647-25.795-25.852-25.795-14.233 0-25.852 11.594-25.852 25.795v36.651c0-14.173-11.648-25.795-25.852-25.795-14.233 0-25.852 11.622-25.852 25.795v88.156c-1.08-14.428-13.239-25.908-27.955-25.908-15.398 0-28.011 12.586-28.011 27.949z" fill="#f2b394" fill-rule="evenodd"/></g><g><path clip-rule="evenodd" d="m245.56 329.912h48.892v34.299h34.403v48.812h-34.403v34.299h-48.892v-34.299h-34.375v-48.812h34.375zm-65.654-10.375c-14.744 19.134-23.523 43.086-23.523 69.079.001 62.616 50.881 113.384 113.637 113.384 62.727 0 113.608-50.768 113.608-113.384 0-26.73-9.261-51.278-24.773-70.666-20.795-26.022-52.869-42.689-88.835-42.689-36.705 0-69.318 17.348-90.114 44.276z" fill="#fff" fill-rule="evenodd"/></g><g><path clip-rule="evenodd" d="m211.185 364.211v48.811h34.375v34.299h48.892v-34.299h34.403v-48.811h-34.403v-34.299h-48.892v34.299z" fill="#ff7b79" fill-rule="evenodd"/></g><g><g><path d="m168.039 318.956c-13.655 19.836-21.658 43.832-21.658 69.661.003 68.033 55.466 123.383 123.639 123.383 68.158 0 123.608-55.35 123.608-123.384 0-26.768-8.592-51.569-23.163-71.809 2.408-4.464 5.147-8.01 8.005-11.704 7.718-9.979 15.698-20.298 15.698-44.978v-29.026c0-5.523-4.478-10-10-10s-10 4.477-10 10v29.026c0 17.849-4.832 24.096-11.519 32.742-1.889 2.442-3.889 5.029-5.871 7.976-22.333-21.987-52.983-35.581-86.759-35.581-34.737 0-66.167 14.373-88.648 37.464l-16.665-22.85c-20.103-26.309-26.874-35.172-26.874-68.875v-48.358c0-9.897 8.08-17.949 18.012-17.949 9.381 0 17.106 7.164 17.955 16.28v43.252c0 5.523 4.478 10 10 10s10-4.477 10-10v-131.78c0-8.709 7.111-15.795 15.852-15.795s15.853 7.085 15.853 15.795v89.375c0 5.523 4.478 10 10 10s10-4.477 10-10v-126.026c0-8.709 7.111-15.795 15.853-15.795 8.74 0 15.852 7.085 15.852 15.795v131.355c0 5.523 4.478 10 10 10s10-4.477 10-10v-106.411c0-8.709 7.099-15.795 15.824-15.795 8.741 0 15.853 7.085 15.853 15.795v112.051c0 5.523 4.478 10 10 10s10-4.477 10-10v-76.505c0-6.943 5.671-12.592 12.642-12.592s12.643 5.648 12.643 12.592v45.013c0 5.523 4.478 10 10 10s10-4.477 10-10v-45.013c-.003-17.971-14.647-32.592-32.646-32.592-4.48 0-8.751.907-12.642 2.545v-5.499c0-19.737-16.083-35.795-35.853-35.795-5.942 0-11.546 1.462-16.485 4.031-3.198-16.486-17.757-28.975-35.19-28.975-19.77 0-35.853 16.058-35.853 35.795v4.557c-4.783-2.365-10.163-3.7-15.853-3.7-19.769 0-35.852 16.058-35.852 35.795v56.752c-5.352-2.871-11.465-4.504-17.955-4.504-20.96 0-38.012 17.024-38.012 37.949v48.358c0 40.469 9.709 53.176 30.982 81.017zm101.981-33.695c57.13 0 103.608 46.365 103.608 103.355 0 57.006-46.479 103.384-103.608 103.384-57.145 0-103.636-46.378-103.636-103.384 0-56.99 46.491-103.355 103.636-103.355z"/><path d="m211.185 423.022h24.375v24.299c0 5.523 4.478 10 10 10h48.893c5.522 0 10-4.477 10-10v-24.299h24.403c5.522 0 10-4.477 10-10v-48.812c0-5.523-4.478-10-10-10h-24.403v-24.298c0-5.523-4.478-10-10-10h-48.893c-5.522 0-10 4.477-10 10v24.298h-24.375c-5.522 0-10 4.477-10 10v48.812c0 5.523 4.477 10 10 10zm10-48.812h24.375c5.522 0 10-4.477 10-10v-24.298h28.893v24.298c0 5.523 4.478 10 10 10h24.403v28.812h-24.403c-5.522 0-10 4.477-10 10v24.299h-28.893v-24.299c0-5.523-4.478-10-10-10h-24.375z"/><path d="m384.168 176.17c-5.522 0-10 4.505-10 10.028s4.478 10 10 10 10-4.477 10-10v-.057c0-5.522-4.478-9.971-10-9.971z"/></g></g></g></svg>